<?xml version="1.0" encoding="utf-8" ?>
<svg xmlns="http://www.w3.org/2000/svg" xmlns:xlink="http://www.w3.org/1999/xlink" width="1024" height="1024">
	<path d="M479.489 59.25L747.127 58.9141C765.726 58.8878 784.53 59.893 802.803 63.5531C841.285 71.2613 877.136 91.4378 904.805 119.119Q907.394 121.705 909.889 124.381Q912.385 127.057 914.784 129.819Q917.184 132.582 919.484 135.427Q921.784 138.273 923.982 141.198Q926.18 144.123 928.274 147.124Q930.367 150.125 932.353 153.198Q934.339 156.272 936.214 159.413Q938.09 162.555 939.854 165.761Q941.617 168.967 943.266 172.233Q944.915 175.5 946.448 178.822Q947.98 182.145 949.394 185.52Q950.808 188.894 952.102 192.317Q953.396 195.74 954.567 199.206Q955.739 202.672 956.788 206.178Q957.836 209.683 958.76 213.224Q959.684 216.764 960.482 220.335C966.938 249.262 965.082 279.053 965.06 308.476L965.016 402.837L965.05 750.706C965.055 766.739 964.556 782.564 961.844 798.407C955.017 838.302 934.453 876.966 905.853 905.501C875.84 935.444 837.369 956.108 795.19 962.127C775.281 964.968 755.318 964.899 735.263 964.835L688.679 964.815L547.37 964.789L273.088 964.97C259.03 965.04 244.888 964.704 230.944 962.783Q228.989 962.518 227.039 962.214Q225.09 961.909 223.147 961.565Q221.204 961.222 219.268 960.839Q217.332 960.456 215.405 960.034Q213.477 959.612 211.559 959.151Q209.64 958.69 207.731 958.191Q205.822 957.692 203.924 957.154Q202.025 956.616 200.138 956.04Q198.251 955.464 196.376 954.849Q194.501 954.235 192.638 953.583Q190.776 952.932 188.927 952.242Q187.078 951.553 185.244 950.826Q183.409 950.1 181.59 949.337Q179.77 948.573 177.967 947.773Q176.163 946.973 174.376 946.137Q172.588 945.301 170.819 944.428Q169.049 943.556 167.297 942.648Q165.545 941.74 163.811 940.797Q162.078 939.855 160.364 938.877Q158.65 937.899 156.957 936.887Q155.263 935.875 153.59 934.828Q151.917 933.782 150.266 932.702Q148.614 931.623 146.985 930.51Q145.355 929.397 143.749 928.251Q142.142 927.106 140.559 925.928Q138.976 924.75 137.417 923.54Q135.858 922.331 134.324 921.09Q132.79 919.849 131.281 918.578Q129.772 917.306 128.289 916.005Q126.806 914.703 125.35 913.372Q123.894 912.04 122.464 910.68Q121.035 909.319 119.634 907.93Q118.072 906.387 116.544 904.811Q115.017 903.234 113.524 901.624Q112.032 900.015 110.575 898.372Q109.118 896.73 107.698 895.057Q106.277 893.383 104.894 891.678Q103.511 889.973 102.165 888.239Q100.82 886.504 99.5129 884.74Q98.206 882.976 96.9382 881.184Q95.6703 879.392 94.4422 877.573Q93.2141 875.753 92.0263 873.907Q90.8385 872.061 89.6916 870.189Q88.5447 868.317 87.4392 866.421Q86.3337 864.524 85.2702 862.603Q84.2067 860.683 83.1857 858.74Q82.1646 856.796 81.1866 854.831Q80.2086 852.866 79.274 850.879Q78.3394 848.893 77.4487 846.886Q76.5581 844.88 75.7117 842.854Q74.8654 840.829 74.0638 838.785Q73.2622 836.741 72.5058 834.681Q71.7493 832.62 71.0383 830.543Q70.3274 828.466 69.6623 826.374Q68.9972 824.282 68.3782 822.176Q67.7593 820.069 67.1868 817.95Q66.6143 815.831 66.0886 813.7Q65.5629 811.568 65.0841 809.426Q64.6054 807.283 64.1739 805.131Q63.7424 802.979 63.3583 800.817Q62.9742 798.656 62.6378 796.486Q62.3013 794.317 62.0126 792.141Q61.724 789.965 61.4832 787.783Q61.2425 785.601 61.0498 783.414C59.2753 764.894 59.8163 746.021 59.7437 727.431L59.9907 403.23L59.8795 309.626C59.7988 278.872 58.0527 247.519 64.6658 217.285Q65.4253 213.848 66.3054 210.439Q67.1855 207.03 68.1852 203.655Q69.1848 200.279 70.3027 196.941Q71.4207 193.603 72.6555 190.306Q73.8903 187.009 75.2404 183.758Q76.5906 180.507 78.0545 177.305Q79.5183 174.104 81.094 170.955Q82.6698 167.807 84.3554 164.717Q86.041 161.626 87.8345 158.597Q89.6279 155.567 91.5269 152.603Q93.426 149.639 95.4282 146.743Q97.4305 143.848 99.5335 141.024Q101.637 138.201 103.838 135.454Q106.039 132.706 108.335 130.038Q110.632 127.37 113.021 124.784Q115.41 122.199 117.889 119.699Q119.39 118.168 120.924 116.669Q122.457 115.17 124.022 113.704Q125.588 112.238 127.184 110.807Q128.78 109.375 130.406 107.977Q132.033 106.58 133.689 105.217Q135.345 103.855 137.03 102.528Q138.714 101.202 140.427 99.9114Q142.14 98.6211 143.88 97.3677Q145.62 96.1143 147.386 94.8984Q149.152 93.6826 150.944 92.5048Q152.736 91.3269 154.553 90.1877Q156.37 89.0485 158.21 87.9484Q160.051 86.8482 161.915 85.7877Q163.778 84.7272 165.664 83.7069Q167.551 82.6865 169.458 81.7066Q171.365 80.7268 173.293 79.788Q175.221 78.8492 177.169 77.9518Q179.116 77.0545 181.083 76.199Q183.049 75.3435 185.033 74.5302Q187.017 73.717 189.018 72.9463Q191.02 72.1757 193.037 71.4481Q195.054 70.7204 197.086 70.036Q199.118 69.3517 201.165 68.711Q203.211 68.0702 205.271 67.4734Q207.33 66.8766 209.402 66.3239Q211.474 65.7713 213.558 65.2631Q215.641 64.7549 217.734 64.2914Q219.828 63.8278 221.931 63.4092Q224.034 62.9906 226.146 62.617Q228.257 62.2434 230.377 61.9151Q232.496 61.5868 234.621 61.3038Q236.747 61.0209 238.878 60.7835C253.902 59.1573 269.013 59.3976 284.099 59.4059L337.856 59.4394L479.489 59.25Z"/>
	<path fill="#FEFEFE" d="M448.711 323.258C457.27 322.994 465.851 323.064 474.414 323.022Q467.176 340.541 460.542 358.297Q443.647 358.034 426.75 358.103L401.157 358.072L413.594 323.442C425.289 323.169 437.012 323.285 448.711 323.258Z"/>
	<path fill="#FEFEFE" d="M447.889 573.371C466.666 587.257 486.534 599.939 505.732 613.257L618.048 691.628C638.053 705.567 659.207 718.732 678.282 733.886C677.082 736.111 675.394 740.069 673.079 741.099C653.869 727.539 634.165 714.824 614.763 701.561Q560.188 664.328 506.052 626.459C484.322 611.404 461.885 596.944 440.929 580.844C443.001 578.158 445.51 575.787 447.889 573.371Z"/>
	<path fill="#FEFEFE" d="M136.492 565.97C149.969 565.388 163.781 565.756 177.275 566.115C181.657 590.347 187.496 612.754 198.263 635.026C220.835 681.719 261.468 712.502 309.739 729.263C294.031 733.744 277.726 737.914 261.483 739.789C268.828 744.946 276.626 749.006 284.562 753.153C295.158 758.881 306.025 764.126 316.561 769.949Q313.623 769.47 310.701 768.902Q307.778 768.335 304.875 767.68Q301.971 767.025 299.088 766.283Q296.205 765.541 293.346 764.713Q290.486 763.884 287.653 762.971Q284.82 762.057 282.016 761.058Q279.212 760.059 276.439 758.977Q273.666 757.894 270.926 756.729Q268.187 755.563 265.484 754.316Q262.781 753.069 260.117 751.741Q257.453 750.413 254.83 749.005Q252.207 747.598 249.627 746.112Q247.048 744.626 244.514 743.064Q241.98 741.501 239.495 739.863Q237.009 738.225 234.574 736.513Q232.139 734.801 229.756 733.016Q227.883 731.604 226.039 730.155Q224.195 728.706 222.381 727.22Q220.567 725.734 218.783 724.212Q216.998 722.69 215.245 721.132Q213.492 719.574 211.771 717.982Q210.05 716.389 208.361 714.762Q206.672 713.135 205.016 711.474Q203.36 709.813 201.738 708.12Q200.116 706.426 198.528 704.7Q196.94 702.974 195.388 701.216Q193.835 699.458 192.318 697.67Q190.801 695.881 189.321 694.063Q187.84 692.244 186.396 690.396Q184.952 688.547 183.546 686.671Q182.14 684.794 180.772 682.889Q179.404 680.984 178.074 679.052Q176.745 677.121 175.454 675.162Q174.164 673.204 172.913 671.22Q171.663 669.236 170.452 667.227Q169.242 665.219 168.072 663.186Q166.902 661.154 165.773 659.098Q164.645 657.042 163.558 654.964Q162.471 652.886 161.426 650.787Q160.381 648.687 159.378 646.567Q158.376 644.447 157.416 642.307Q156.456 640.167 155.54 638.008Q154.623 635.85 153.751 633.673Q152.878 631.496 152.049 629.302Q151.221 627.108 150.436 624.898Q149.652 622.688 148.912 620.463Q148.172 618.237 147.477 615.997Q146.783 613.757 146.133 611.504C141.676 596.516 138.826 581.415 136.492 565.97Z"/>
	<path fill="#FEFEFE" d="M400.75 364.256C419.962 364.038 439.142 363.768 458.347 364.45C443.498 408.475 425.834 451.675 409.483 495.169Q403.096 512.067 396.887 529.031C394.496 535.663 392.49 543.836 388.922 549.888L387.625 550.14L329.658 550.102L377.912 420.342Q385.108 400.504 392.55 380.757C394.377 375.954 396.102 369.368 398.956 365.142C399.544 364.272 399.775 364.461 400.75 364.256Z"/>
	<path fill="#FEFEFE" d="M488.168 523.783C491.965 524.844 531.258 553.15 537.941 557.736L713.716 678.267Q699.584 700.024 684.958 721.452C667.061 708.208 648.044 696.15 629.702 683.486L516.141 604.941L480.992 580.818C473.575 575.736 465.962 570.815 458.889 565.259C468.198 551.135 478.271 537.496 488.168 523.783Z"/>
	<path d="M683.173 686.021C685.562 685.927 688.084 685.971 690.052 687.535C691.118 688.382 691.78 689.551 691.863 690.926C692.037 693.823 690.078 695.648 688.17 697.516Q687.64 697.627 687.106 697.713C685.163 698.018 683.202 697.794 681.665 696.45C680.602 695.52 680.138 694.124 680.054 692.751C679.873 689.795 681.282 688.098 683.173 686.021Z"/>
	<path d="M484.097 550C486.541 550.022 488.949 550.042 490.91 551.711C492.15 552.767 492.707 554.134 492.707 555.76C492.707 558.665 490.542 560.699 488.554 562.483C485.933 562.517 483.564 562.261 481.672 560.239C480.53 559.018 480.05 557.372 480.231 555.721C480.525 553.039 482.117 551.631 484.097 550Z"/>
	<path fill="#FEFEFE" d="M499.032 322.747C510.552 322.639 522.114 322.97 533.635 323.115C541.592 341.721 547.972 360.995 556.307 379.428C567.523 368.252 578.059 356.392 588.632 344.615C595.252 337.24 601.698 329.134 609.439 322.907Q643.081 322.545 676.721 323.048C665.612 337.288 652.549 350.508 640.501 363.985C625.862 380.361 611.859 397.178 596.371 412.785C585.601 407.818 570.9 400.272 558.77 402.593C552.608 403.772 545.256 409.088 542.948 415.154C541.021 420.221 541.611 423.832 538.448 428.893C532.921 437.737 526.184 446.157 520.208 454.755L453.766 549.986L401.917 549.968Q455.122 489.703 510.332 431.268C506.549 416.019 501.652 401.103 496.989 386.109C490.526 365.324 484.107 344.44 478.507 323.406C485.303 322.73 492.208 322.843 499.032 322.747Z"/>
	<path fill="#FEFEFE" d="M395.374 251.714C409.592 250.786 424.004 251.852 438.247 251.889L528.46 251.915L610.748 251.903C631.257 251.88 651.995 251.072 672.396 253.605C691.301 255.953 709.807 261.669 727.273 269.152C722.223 281.336 717.226 293.463 713.042 305.981C700.396 301.738 687.705 297.025 674.541 294.653C656.183 291.346 637.367 292.045 618.799 292.075L558.25 292.107L455.168 292.109C434.044 292.107 412.418 291.049 391.353 292.469C353.024 295.053 315.326 309.234 282.985 329.572C280.036 322.344 277.837 314.756 275.639 307.273C266.559 306.346 257.355 306.512 248.237 306.479C280.199 279.595 321.211 262.544 362.17 255.423C373.165 253.511 384.252 252.538 395.374 251.714Z"/>
	<path fill="#FEFEFE" d="M842.328 330.905C846.208 334.73 849.283 339.26 852.156 343.867C883.533 394.183 894.28 453.194 880.763 511.12Q879.792 515.401 878.644 519.637Q877.495 523.874 876.171 528.059Q874.847 532.244 873.351 536.37Q871.854 540.496 870.186 544.556Q868.519 548.617 866.684 552.604Q864.849 556.591 862.85 560.499Q860.85 564.406 858.69 568.227Q856.53 572.048 854.212 575.776C845.53 589.559 834.161 601.725 824.051 614.467L764.208 689.94L688.35 785.152C673.899 803.296 660.034 822.4 644.201 839.354C634.302 849.955 623.29 858.303 611.032 865.942C607.876 867.789 604.691 869.281 601.3 870.638C605.647 860.816 611.239 851.32 616.373 841.879C632.542 812.146 650.401 783.472 668.552 754.92L669.608 755.176C673.57 756.129 676.599 756.42 680.19 754.074C687.927 749.019 713.889 704.188 721.447 692.323C729.364 679.893 737.791 667.773 745.958 655.505C758.214 637.092 770.437 618.546 783.672 600.817C796.803 583.228 812.519 567.252 823.837 548.369C832.442 534.012 838.315 518.013 841.888 501.686C852.626 452.63 842.313 403.508 815.385 361.52C823.229 350.926 833.529 340.873 842.328 330.905Z"/>
	<path fill="#FEFEFE" d="M549.2 435.749C560.245 441.721 570.403 449.779 580.716 456.929Q611.47 478.104 641.935 499.691L724.63 556.552C740.855 567.691 757.222 578.66 773.003 590.425Q753.793 619.643 734.154 648.574C731.37 652.725 725.178 663.962 721.796 666.743L720.787 666.581C698.107 652.203 676.199 636.643 654.105 621.394L548.901 549.388C530.941 537.08 513.395 524.24 495.153 512.34C502.461 502.878 509.155 492.9 515.993 483.097Q532.444 459.316 549.2 435.749Z"/>
	<path d="M745.188 594.439C747.413 594.393 749.614 594.418 751.306 596.099C752.151 596.938 752.596 598.059 752.633 599.241C752.72 601.946 751.31 603.574 749.59 605.482C747.81 605.351 746.108 605.124 744.641 604.004C743.515 603.145 742.854 601.944 742.713 600.538C742.454 597.965 743.646 596.353 745.188 594.439Z"/>
	<path d="M548.458 457.441C550.993 457.372 552.892 457.355 554.848 459.199Q555.064 459.4 555.256 459.623Q555.449 459.846 555.615 460.089Q555.782 460.332 555.921 460.592Q556.059 460.852 556.169 461.126Q556.278 461.399 556.356 461.683Q556.434 461.967 556.481 462.258Q556.527 462.549 556.541 462.844Q556.555 463.138 556.537 463.432C556.373 466.242 554.721 467.896 552.701 469.628C550.349 469.674 547.639 469.58 545.913 467.699C544.959 466.66 544.44 465.497 544.489 464.077C544.593 461.073 546.386 459.372 548.458 457.441Z"/>
	<path fill="#FEFEFE" d="M235.663 322.622C244.786 323.018 253.936 323.007 263.067 323.11C264.773 330.776 266.964 338.351 268.783 345.995L282.196 402.958C285.228 415.647 288.966 428.557 290.826 441.474C298.539 424.546 305.607 403.165 311.933 385.508C317.391 370.275 323.204 344.99 334.526 333.772C345.284 323.113 358.458 322.964 372.739 322.975L392.949 323.034C387.289 342.858 378.987 361.954 371.987 381.344Q357.11 422.846 341.706 464.155C330.97 492.756 319.906 521.193 310.115 550.139Q297.05 550.032 283.985 550.192C277.952 550.359 271.667 550.549 266.308 547.294C260.718 543.898 257.215 537.609 254.86 531.681C250.505 520.72 249.093 508.455 246.795 496.93C242.232 474.039 238.17 450.817 232.618 428.15L207.048 500.819C202.998 512.404 199.714 524.621 194.581 535.774Q193.754 537.572 192.592 539.172Q191.429 540.773 189.975 542.115C177.744 553.458 147.146 551.325 131.161 550.937Q157.2 482.305 182.169 413.276L194.256 380.29C198.647 368.172 202.51 355.164 209.57 344.277C215.753 334.744 225.561 327.516 235.663 322.622Z"/>
	<path fill="#FEFEFE" d="M878.826 121.639C883.656 121.326 888.653 123.3 892.285 126.408C900.477 133.418 902.693 145.721 903.343 155.941C907.478 220.957 849.492 300.546 808.353 346.34C788.637 368.286 766.652 388.218 747.256 410.407C738.73 420.159 731.189 430.647 725.37 442.256C712.429 468.073 715.417 487.329 734.029 509.511C744.14 521.562 756.337 531.735 766.634 543.743C776.465 555.207 783.645 565.88 784.682 581.289C771.001 573.113 758.115 563.787 744.968 554.802L684.76 513.721C656.425 494.595 628.782 474.418 600.723 454.879L572.095 435C565.06 430.202 557.72 425.643 551.191 420.164C553.978 417.234 557.019 413.801 561.2 413.052C577.602 410.113 615.788 445.288 649.91 439.438C692.124 432.201 708.262 367.821 719.748 333.235Q727.912 308.348 737.988 284.171Q742.739 272.455 748.169 261.039Q753.6 249.622 759.69 238.544Q765.781 227.466 772.511 216.764Q779.242 206.062 786.588 195.773C807.526 166.299 841.693 127.915 878.826 121.639Z"/>
	<path d="M851.63 157.618C858.182 157.454 864.719 159.218 870.078 163.059Q870.637 163.465 871.174 163.898Q871.712 164.332 872.227 164.792Q872.742 165.252 873.234 165.737Q873.725 166.222 874.192 166.731Q874.658 167.241 875.098 167.773Q875.538 168.305 875.951 168.859Q876.364 169.412 876.748 169.986Q877.133 170.56 877.488 171.152Q877.843 171.744 878.168 172.354Q878.493 172.963 878.787 173.588Q879.081 174.213 879.343 174.852Q879.605 175.491 879.835 176.142Q880.064 176.794 880.261 177.456Q880.457 178.118 880.62 178.789Q880.783 179.46 880.912 180.138Q881.041 180.817 881.136 181.501C882.155 188.905 879.852 196.894 875.338 202.824C870.353 209.373 863.512 212.613 855.56 213.758C849.378 213.977 843.301 212.717 838.023 209.39C831.83 205.486 827.769 199.011 826.214 191.931Q826.056 191.233 825.934 190.528Q825.811 189.823 825.725 189.112Q825.638 188.402 825.588 187.688Q825.537 186.974 825.523 186.259Q825.509 185.543 825.531 184.828Q825.553 184.112 825.611 183.399Q825.669 182.686 825.763 181.976Q825.858 181.267 825.988 180.563Q826.118 179.86 826.284 179.163Q826.449 178.467 826.65 177.78Q826.851 177.093 827.086 176.417Q827.321 175.741 827.59 175.078Q827.859 174.415 828.162 173.766Q828.464 173.118 828.799 172.485Q829.134 171.853 829.5 171.238Q829.867 170.623 830.264 170.028C835.431 162.344 842.93 159.227 851.63 157.618Z"/>
	<path fill="#FEFEFE" d="M444.745 600.267C456.529 607.414 467.571 615.675 478.868 623.547L532.24 660.53L611.565 715.515C626.319 725.734 641.287 735.699 655.782 746.28Q637.887 775.773 620.72 805.695C598.756 843.387 578.579 876.822 572.59 920.821C556.441 911.766 541.454 900.575 526.008 890.383C530.541 876.428 539.476 862.804 546.467 849.933L579.93 788.126C586.137 776.763 592.84 765.771 598.492 754.106C589.1 764.961 581.452 777.413 572.771 788.847C550.605 818.044 527.887 846.968 508.169 877.912L498.318 871.25C516.382 830.137 536.736 790.057 555.58 749.299Q534.98 775.945 514.08 802.358Q493.505 828.732 474.071 855.956C466.293 851.109 458.819 845.573 451.216 840.443C438.297 831.727 425.251 823.142 412.764 813.809C417.939 803.111 423.935 792.806 429.817 782.486Q446.138 753.696 463.834 725.73C471.953 712.72 480.62 700.001 487.779 686.424C456.321 724.766 425.57 763.76 394.681 802.564C383.46 794.996 371.096 788.665 360.318 780.545C366.978 773.678 374.316 767.572 380.791 760.487C398.624 740.974 412.647 718.618 426.256 696.068C432.012 686.531 438.655 677.173 442.716 666.763C437.55 673.206 433.387 680.525 428.915 687.454C414.595 709.645 389.181 743.199 366.002 756.36C358.348 760.707 349.925 763.211 341.363 765.046C327.815 760.351 315.443 751.863 302.225 746.192Q303.573 745.909 304.908 745.567C348.794 734.361 380.445 694.777 405.804 659.738Q426.79 630.995 444.745 600.267Z"/>
</svg>
